<?xml version="1.0" standalone="no"?>
<!DOCTYPE svg PUBLIC "-//W3C//DTD SVG 20010904//EN"
 "http://www.w3.org/TR/2001/REC-SVG-20010904/DTD/svg10.dtd">
<svg version="1.0" xmlns="http://www.w3.org/2000/svg"
 width="137.000000pt" height="76.000000pt" viewBox="0 0 137.000000 76.000000"
 preserveAspectRatio="xMidYMid meet">

<g transform="translate(0.000000,76.000000) scale(0.100000,-0.100000)"
fill="#000000" stroke="none">
<path d="M395 550 l-90 -90 90 -90 90 -90 90 90 90 90 -90 90 -90 90 -90 -90z"/>
<path d="M777 552 l-87 -87 92 -93 92 -93 90 90 91 91 -90 90 c-49 49 -92 90
-95 90 -3 0 -45 -39 -93 -88z"/>
<path d="M206 361 c-103 -103 -104 -83 12 -195 40 -39 78 -70 84 -68 13 3 168
161 168 171 0 3 -39 46 -88 94 l-87 87 -89 -89z"/>
<path d="M977 362 c-48 -48 -87 -92 -87 -97 0 -6 38 -49 85 -95 l85 -85 93 93
92 92 -90 90 -90 90 -88 -88z"/>
<path d="M587 352 l-87 -87 90 -90 90 -90 90 90 90 90 -87 87 c-48 49 -90 88
-93 88 -3 0 -45 -39 -93 -88z"/>
</g>
</svg>
